<svg width="39" height="39" viewBox="0 0 39 39" fill="none" xmlns="http://www.w3.org/2000/svg">
<path d="M24.9839 4.97009H22.6987V8.93103H24.9839V4.97009Z" fill="#E3CEA3"/>
<path d="M29.5547 4.97009H27.2695V8.93103H29.5547V4.97009Z" fill="#E3CEA3"/>
<path d="M20.4136 4.97009H18.1284V8.93103H20.4136V4.97009Z" fill="#E3CEA3"/>
<path d="M24.9839 11.2163H22.6987V15.1772H24.9839V11.2163Z" fill="#E3CEA3"/>
<path d="M29.5547 11.2163H27.2695V15.1772H29.5547V11.2163Z" fill="#E3CEA3"/>
<path d="M20.4136 11.2163H18.1284V15.1772H20.4136V11.2163Z" fill="#E3CEA3"/>
<path d="M11.5015 12.8414H9.21631V16.0948H11.5015V12.8414Z" fill="#E3CEA3"/>
<path d="M11.5015 18.3801H9.21631V21.6334H11.5015V18.3801Z" fill="#E3CEA3"/>
<path d="M11.5015 23.9187H9.21631V27.1721H11.5015V23.9187Z" fill="#E3CEA3"/>
<path d="M11.5015 29.4574H9.21631V32.7107H11.5015V29.4574Z" fill="#E3CEA3"/>
<path d="M24.9839 17.4625H22.6987V21.4235H24.9839V17.4625Z" fill="#E3CEA3"/>
<path d="M29.5547 17.4625H27.2695V21.4235H29.5547V17.4625Z" fill="#E3CEA3"/>
<path d="M20.4136 17.4625H18.1284V21.4235H20.4136V17.4625Z" fill="#E3CEA3"/>
<path d="M24.9839 23.7087H22.6987V27.6697H24.9839V23.7087Z" fill="#E3CEA3"/>
<path d="M29.5547 23.7087H27.2695V27.6697H29.5547V23.7087Z" fill="#E3CEA3"/>
<path d="M20.4136 23.7087H18.1284V27.6697H20.4136V23.7087Z" fill="#E3CEA3"/>
<path d="M29.5547 29.955H27.2695V33.9159H29.5547V29.955Z" fill="#E3CEA3"/>
<path d="M20.4136 29.955H18.1284V33.9159H20.4136V29.955Z" fill="#E3CEA3"/>
<path d="M34.1253 36.6962V0.0186768H13.5578V8.21104H4.8747V36.6961H0V38.9813H39V36.6961H34.1253V36.6962ZM31.8401 2.30383V36.6962H24.9841V29.9551H22.6989V36.6962H15.8429V2.30383H31.8401ZM7.15985 10.4962H13.5578V36.6961H7.15985V10.4962Z" fill="#E3CEA3"/>
</svg>
