<svg width="49" height="49" viewBox="0 0 49 49" fill="none" xmlns="http://www.w3.org/2000/svg">
<path d="M47.2802 12.702L43.1975 4.53575C43.1974 4.53537 43.1972 4.53489 43.1969 4.53451C43.182 4.50484 43.1646 4.47632 43.1461 4.44838C43.14 4.43929 43.1338 4.43058 43.1275 4.42177C43.1135 4.40253 43.0986 4.38387 43.0828 4.36569C43.0759 4.35775 43.0694 4.34942 43.0622 4.34167C43.0416 4.31966 43.0194 4.2987 42.9959 4.27879C42.9849 4.26941 42.9733 4.26109 42.9618 4.25228C42.9526 4.2453 42.9441 4.23773 42.9346 4.23113C42.9284 4.22682 42.9219 4.22338 42.9157 4.21936C42.9035 4.21132 42.8913 4.20357 42.8788 4.1962C42.8585 4.18424 42.8377 4.17361 42.8168 4.16356C42.8087 4.15974 42.8011 4.15524 42.7928 4.1517C42.7627 4.13859 42.7321 4.12777 42.701 4.11849C42.6928 4.116 42.6845 4.11409 42.6762 4.11188C42.6495 4.1048 42.6227 4.09906 42.5957 4.09475C42.5884 4.09361 42.5813 4.09217 42.574 4.09121C42.5399 4.08671 42.5056 4.08423 42.4715 4.08403C42.4699 4.08403 42.4685 4.08375 42.4669 4.08375H17.1598V2.45C17.1598 2.17638 17.0226 1.92076 16.7948 1.76974L14.3349 0.136377C14.2009 0.047373 14.0442 0 13.8833 0H10.6167C10.4558 0 10.2973 0.0481387 10.1634 0.137238L7.71342 1.77051C7.48641 1.92239 7.35003 2.17725 7.35003 2.45V4.08337H4.89984C4.44908 4.08337 4.0832 4.44924 4.0832 4.9V13.0666C4.0832 13.5174 4.44908 13.8833 4.89984 13.8833H7.34994V14.7139C7.34994 14.7141 7.34994 14.7143 7.34994 14.7145V47.3666H2.44994C1.99917 47.3666 1.6333 47.7325 1.6333 48.1833C1.6333 48.634 1.99917 49 2.44994 49H8.16657H16.3431H22.0499C22.5007 49 22.8666 48.6341 22.8666 48.1834C22.8666 47.7326 22.5007 47.3667 22.0499 47.3667H17.1597V27.7753C17.1597 27.7725 17.1602 27.7696 17.1602 27.7667C17.1602 27.7639 17.1597 27.761 17.1597 27.7581V13.8837H35.9332V18.7834C35.9332 19.2341 36.2991 19.6 36.7498 19.6C37.6506 19.6 38.3832 20.3325 38.3832 21.2334C38.3832 22.1341 37.6507 22.8667 36.7498 22.8667C35.849 22.8667 35.1165 22.1342 35.1165 21.2334C35.1165 20.7826 34.7506 20.4167 34.2998 20.4167C33.8491 20.4167 33.4832 20.7826 33.4832 21.2334C33.4833 23.0349 34.9484 24.5 36.7499 24.5C38.5514 24.5 40.0166 23.0349 40.0166 21.2334C40.0166 19.7137 38.9741 18.4335 37.5666 18.07V13.8837H46.55C46.8326 13.8837 47.0955 13.7367 47.2442 13.4966C47.3937 13.2557 47.4068 12.9552 47.2802 12.702ZM15.5264 13.1388L13.6733 11.8416L15.5264 10.5445V13.1388ZM14.9771 14.7471L12.2599 16.9209L9.5334 14.7397L12.2499 12.8381L14.9771 14.7471ZM8.9833 32.6087V29.4578L10.9527 31.0333L8.9833 32.6087ZM12.2599 32.079L15.0361 34.3L12.2599 36.521L9.48354 34.3L12.2599 32.079ZM9.48364 27.7666L12.2599 25.5457L15.0361 27.7666L12.2599 29.9875L9.48364 27.7666ZM8.9833 26.0755V22.9245L10.9527 24.5L8.9833 26.0755ZM9.48354 21.2334L12.2599 19.0124L15.0361 21.2334L12.2599 23.4543L9.48354 21.2334ZM8.9833 19.5421V16.3912L10.9527 17.9666L8.9833 19.5421ZM8.9833 13.1319V10.5515L10.8264 11.8417L8.9833 13.1319ZM8.9833 35.9913L10.9527 37.5667L8.9833 39.1422V35.9913ZM12.2599 38.6125L15.0818 40.87L12.2599 43.4099L9.43789 40.87L12.2599 38.6125ZM13.5671 37.5667L15.5264 35.9993V39.1342L13.5671 37.5667ZM13.5671 31.0333L15.5264 29.4658V32.6007L13.5671 31.0333ZM13.5671 24.5L15.5264 22.9326V26.0674L13.5671 24.5ZM13.5671 17.9666L15.5264 16.3992V19.5341L13.5671 17.9666ZM15.5264 7.42206L13.6733 6.125L15.5264 4.82784V7.42206ZM14.9098 8.98327L12.2499 10.8453L9.59006 8.98337L12.2499 7.12137L14.9098 8.98327ZM8.9833 7.41517V4.83473L10.8264 6.125L8.9833 7.41517ZM11.0397 44.5082L8.9833 46.359V42.6575L11.0397 44.5082ZM12.2599 45.6065L14.2157 47.3667H10.304L12.2599 45.6065ZM13.4801 44.5082L15.5264 42.6665V46.3499L13.4801 44.5082ZM17.1599 6.20769L19.3808 8.98384L17.1599 11.76V6.20769ZM31.9256 5.71711H35.0608L33.4932 7.67644L31.9256 5.71711ZM32.4473 8.98346L30.2261 11.7596L28.0057 8.98404L30.2269 6.20788L32.4473 8.98346ZM26.9599 7.67663L25.3923 5.71711H28.5274L26.9599 7.67663ZM25.9139 8.98404L23.6935 11.7596L21.4724 8.98346L23.6928 6.20788L25.9139 8.98404ZM20.4267 7.67644L18.8591 5.71711H21.9942L20.4267 7.67644ZM20.4265 10.291L21.9941 12.2505H18.859L20.4265 10.291ZM26.9599 10.2912L28.5274 12.2504H25.3924L26.9599 10.2912ZM33.4933 10.291L35.0608 12.2505H31.9256L33.4933 10.291ZM36.711 11.6988L34.5389 8.98375L36.7113 6.26827L38.6118 8.98327L36.711 11.6988ZM39.6082 10.4069L40.8987 12.2504H38.3176L39.6082 10.4069ZM38.3182 5.71711H40.8982L39.6082 7.55997L38.3182 5.71711ZM10.8641 1.63337H13.6367L15.4872 2.86248L12.2499 5.12854L9.01622 2.86497L10.8641 1.63337ZM7.34984 12.25H5.71647V5.71663H7.34984V12.25ZM42.8916 12.2504L40.6047 8.98337L42.3491 6.49126L45.2288 12.2504H42.8916Z" fill="#E3CEA3"/>
<path d="M45.733 26.1333H27.7663C27.3156 26.1333 26.9497 26.4992 26.9497 26.9499V48.1833C26.9497 48.6341 27.3156 48.9999 27.7663 48.9999H45.733C46.1837 48.9999 46.5496 48.6341 46.5496 48.1833V26.9499C46.5497 26.4992 46.1838 26.1333 45.733 26.1333ZM38.3832 47.3666H35.1165V44.0999H38.3832V47.3666ZM44.9163 47.3666H40.0165V43.2832C40.0165 42.8324 39.6507 42.4666 39.1999 42.4666H34.2999C33.8491 42.4666 33.4833 42.8324 33.4833 43.2832V47.3666H28.5831V27.7666H44.9164V47.3666H44.9163Z" fill="#E3CEA3"/>
<path d="M40.0168 34.3H41.65C42.5508 34.3 43.2834 33.5675 43.2834 32.6666V31.0333C43.2834 30.1325 42.5509 29.3999 41.65 29.3999H40.0167C39.1159 29.3999 38.3833 30.1324 38.3833 31.0333V32.6666C38.3834 33.5675 39.1159 34.3 40.0168 34.3ZM40.0168 31.0334H41.65L41.6509 32.6667H40.0168V31.0334Z" fill="#E3CEA3"/>
<path d="M31.8502 34.3H33.4835C34.3843 34.3 35.1169 33.5675 35.1169 32.6666V31.0333C35.1169 30.1325 34.3844 29.3999 33.4835 29.3999H31.8502C30.9494 29.3999 30.2168 30.1324 30.2168 31.0333V32.6666C30.2169 33.5675 30.9494 34.3 31.8502 34.3ZM31.8502 31.0334H33.4835L33.4844 32.6667H31.8502V31.0334Z" fill="#E3CEA3"/>
<path d="M40.0168 40.8333H41.65C42.5508 40.8333 43.2834 40.1008 43.2834 39.2V37.5666C43.2834 36.6658 42.5509 35.9332 41.65 35.9332H40.0167C39.1159 35.9332 38.3833 36.6657 38.3833 37.5666V39.2C38.3834 40.1007 39.1159 40.8333 40.0168 40.8333ZM40.0168 37.5666H41.65L41.6509 39.2H40.0168V37.5666Z" fill="#E3CEA3"/>
<path d="M31.8502 40.8333H33.4835C34.3843 40.8333 35.1169 40.1008 35.1169 39.2V37.5666C35.1169 36.6658 34.3844 35.9332 33.4835 35.9332H31.8502C30.9494 35.9332 30.2168 36.6657 30.2168 37.5666V39.2C30.2169 40.1007 30.9494 40.8333 31.8502 40.8333ZM31.8502 37.5666H33.4835L33.4844 39.2H31.8502V37.5666Z" fill="#E3CEA3"/>
</svg>
